<?xml version="1.0" encoding="utf-8" standalone="no"?>
<!DOCTYPE svg PUBLIC "-//W3C//DTD SVG 1.1//EN"
  "http://www.w3.org/Graphics/SVG/1.1/DTD/svg11.dtd">
<svg xmlns:xlink="http://www.w3.org/1999/xlink" width="1105.92pt" height="543.168pt" viewBox="0 0 1105.92 543.168" xmlns="http://www.w3.org/2000/svg" version="1.1">
 <metadata>
  <rdf:RDF xmlns:dc="http://purl.org/dc/elements/1.1/" xmlns:cc="http://creativecommons.org/ns#" xmlns:rdf="http://www.w3.org/1999/02/22-rdf-syntax-ns#">
   <cc:Work>
    <dc:type rdf:resource="http://purl.org/dc/dcmitype/StillImage"/>
    <dc:date>2026-04-08T12:32:23.145653</dc:date>
    <dc:format>image/svg+xml</dc:format>
    <dc:creator>
     <cc:Agent>
      <dc:title>Matplotlib v3.9.4, https://matplotlib.org/</dc:title>
     </cc:Agent>
    </dc:creator>
   </cc:Work>
  </rdf:RDF>
 </metadata>
 <defs>
  <style type="text/css">*{stroke-linejoin: round; stroke-linecap: butt}</style>
 </defs>
 <g id="figure_1">
  <g id="patch_1">
   <path d="M 0 543.168 
L 1105.92 543.168 
L 1105.92 0 
L 0 0 
z
" style="fill: #ffffff"/>
  </g>
  <g id="axes_1">
   <g id="patch_2">
    <path d="M 104.6784 257.73133 
L 1089.3312 257.73133 
L 1089.3312 25.34784 
L 104.6784 25.34784 
z
" style="fill: #ffffff"/>
   </g>
   <g id="matplotlib.axis_1">
    <g id="xtick_1">
     <g id="line2d_1">
      <path d="M 149.435345 257.73133 
L 149.435345 25.34784 
" clip-path="url(#pdab57082d2)" style="fill: none; stroke: #b0b0b0; stroke-width: 0.8; stroke-linecap: square"/>
     </g>
     <g id="line2d_2">
      <defs>
       <path id="mee7358b973" d="M 0 0 
L 0 3.5 
" style="stroke: #000000; stroke-width: 0.8"/>
      </defs>
      <g>
       <use xlink:href="#mee7358b973" x="149.435345" y="257.73133" style="stroke: #000000; stroke-width: 0.8"/>
      </g>
     </g>
    </g>
    <g id="xtick_2">
     <g id="line2d_3">
      <path d="M 328.642334 257.73133 
L 328.642334 25.34784 
" clip-path="url(#pdab57082d2)" style="fill: none; stroke: #b0b0b0; stroke-width: 0.8; stroke-linecap: square"/>
     </g>
     <g id="line2d_4">
      <g>
       <use xlink:href="#mee7358b973" x="328.642334" y="257.73133" style="stroke: #000000; stroke-width: 0.8"/>
      </g>
     </g>
    </g>
    <g id="xtick_3">
     <g id="line2d_5">
      <path d="M 507.849323 257.73133 
L 507.849323 25.34784 
" clip-path="url(#pdab57082d2)" style="fill: none; stroke: #b0b0b0; stroke-width: 0.8; stroke-linecap: square"/>
     </g>
     <g id="line2d_6">
      <g>
       <use xlink:href="#mee7358b973" x="507.849323" y="257.73133" style="stroke: #000000; stroke-width: 0.8"/>
      </g>
     </g>
    </g>
    <g id="xtick_4">
     <g id="line2d_7">
      <path d="M 687.056312 257.73133 
L 687.056312 25.34784 
" clip-path="url(#pdab57082d2)" style="fill: none; stroke: #b0b0b0; stroke-width: 0.8; stroke-linecap: square"/>
     </g>
     <g id="line2d_8">
      <g>
       <use xlink:href="#mee7358b973" x="687.056312" y="257.73133" style="stroke: #000000; stroke-width: 0.8"/>
      </g>
     </g>
    </g>
    <g id="xtick_5">
     <g id="line2d_9">
      <path d="M 866.263301 257.73133 
L 866.263301 25.34784 
" clip-path="url(#pdab57082d2)" style="fill: none; stroke: #b0b0b0; stroke-width: 0.8; stroke-linecap: square"/>
     </g>
     <g id="line2d_10">
      <g>
       <use xlink:href="#mee7358b973" x="866.263301" y="257.73133" style="stroke: #000000; stroke-width: 0.8"/>
      </g>
     </g>
    </g>
    <g id="xtick_6">
     <g id="line2d_11">
      <path d="M 1045.470289 257.73133 
L 1045.470289 25.34784 
" clip-path="url(#pdab57082d2)" style="fill: none; stroke: #b0b0b0; stroke-width: 0.8; stroke-linecap: square"/>
     </g>
     <g id="line2d_12">
      <g>
       <use xlink:href="#mee7358b973" x="1045.470289" y="257.73133" style="stroke: #000000; stroke-width: 0.8"/>
      </g>
     </g>
    </g>
   </g>
   <g id="matplotlib.axis_2">
    <g id="ytick_1">
     <g id="line2d_13">
      <path d="M 104.6784 231.144031 
L 1089.3312 231.144031 
" clip-path="url(#pdab57082d2)" style="fill: none; stroke: #b0b0b0; stroke-width: 0.8; stroke-linecap: square"/>
     </g>
     <g id="line2d_14">
      <defs>
       <path id="mc2a06ee8e5" d="M 0 0 
L -3.5 0 
" style="stroke: #000000; stroke-width: 0.8"/>
      </defs>
      <g>
       <use xlink:href="#mc2a06ee8e5" x="104.6784" y="231.144031" style="stroke: #000000; stroke-width: 0.8"/>
      </g>
     </g>
     <g id="text_1">
      <!-- −4 -->
      <g transform="translate(82.936213 234.94325) scale(0.1 -0.1)">
       <defs>
        <path id="DejaVuSans-2212" d="M 678 2272 
L 4684 2272 
L 4684 1741 
L 678 1741 
L 678 2272 
z
" transform="scale(0.015625)"/>
        <path id="DejaVuSans-34" d="M 2419 4116 
L 825 1625 
L 2419 1625 
L 2419 4116 
z
M 2253 4666 
L 3047 4666 
L 3047 1625 
L 3713 1625 
L 3713 1100 
L 3047 1100 
L 3047 0 
L 2419 0 
L 2419 1100 
L 313 1100 
L 313 1709 
L 2253 4666 
z
" transform="scale(0.015625)"/>
       </defs>
       <use xlink:href="#DejaVuSans-2212"/>
       <use xlink:href="#DejaVuSans-34" x="83.789062"/>
      </g>
     </g>
    </g>
    <g id="ytick_2">
     <g id="line2d_15">
      <path d="M 104.6784 200.169066 
L 1089.3312 200.169066 
" clip-path="url(#pdab57082d2)" style="fill: none; stroke: #b0b0b0; stroke-width: 0.8; stroke-linecap: square"/>
     </g>
     <g id="line2d_16">
      <g>
       <use xlink:href="#mc2a06ee8e5" x="104.6784" y="200.169066" style="stroke: #000000; stroke-width: 0.8"/>
      </g>
     </g>
     <g id="text_2">
      <!-- −2 -->
      <g transform="translate(82.936213 203.968285) scale(0.1 -0.1)">
       <defs>
        <path id="DejaVuSans-32" d="M 1228 531 
L 3431 531 
L 3431 0 
L 469 0 
L 469 531 
Q 828 903 1448 1529 
Q 2069 2156 2228 2338 
Q 2531 2678 2651 2914 
Q 2772 3150 2772 3378 
Q 2772 3750 2511 3984 
Q 2250 4219 1831 4219 
Q 1534 4219 1204 4116 
Q 875 4013 500 3803 
L 500 4441 
Q 881 4594 1212 4672 
Q 1544 4750 1819 4750 
Q 2544 4750 2975 4387 
Q 3406 4025 3406 3419 
Q 3406 3131 3298 2873 
Q 3191 2616 2906 2266 
Q 2828 2175 2409 1742 
Q 1991 1309 1228 531 
z
" transform="scale(0.015625)"/>
       </defs>
       <use xlink:href="#DejaVuSans-2212"/>
       <use xlink:href="#DejaVuSans-32" x="83.789062"/>
      </g>
     </g>
    </g>
    <g id="ytick_3">
     <g id="line2d_17">
      <path d="M 104.6784 169.194101 
L 1089.3312 169.194101 
" clip-path="url(#pdab57082d2)" style="fill: none; stroke: #b0b0b0; stroke-width: 0.8; stroke-linecap: square"/>
     </g>
     <g id="line2d_18">
      <g>
       <use xlink:href="#mc2a06ee8e5" x="104.6784" y="169.194101" style="stroke: #000000; stroke-width: 0.8"/>
      </g>
     </g>
     <g id="text_3">
      <!-- 0 -->
      <g transform="translate(91.3159 172.99332) scale(0.1 -0.1)">
       <defs>
        <path id="DejaVuSans-30" d="M 2034 4250 
Q 1547 4250 1301 3770 
Q 1056 3291 1056 2328 
Q 1056 1369 1301 889 
Q 1547 409 2034 409 
Q 2525 409 2770 889 
Q 3016 1369 3016 2328 
Q 3016 3291 2770 3770 
Q 2525 4250 2034 4250 
z
M 2034 4750 
Q 2819 4750 3233 4129 
Q 3647 3509 3647 2328 
Q 3647 1150 3233 529 
Q 2819 -91 2034 -91 
Q 1250 -91 836 529 
Q 422 1150 422 2328 
Q 422 3509 836 4129 
Q 1250 4750 2034 4750 
z
" transform="scale(0.015625)"/>
       </defs>
       <use xlink:href="#DejaVuSans-30"/>
      </g>
     </g>
    </g>
    <g id="ytick_4">
     <g id="line2d_19">
      <path d="M 104.6784 138.219136 
L 1089.3312 138.219136 
" clip-path="url(#pdab57082d2)" style="fill: none; stroke: #b0b0b0; stroke-width: 0.8; stroke-linecap: square"/>
     </g>
     <g id="line2d_20">
      <g>
       <use xlink:href="#mc2a06ee8e5" x="104.6784" y="138.219136" style="stroke: #000000; stroke-width: 0.8"/>
      </g>
     </g>
     <g id="text_4">
      <!-- 2 -->
      <g transform="translate(91.3159 142.018355) scale(0.1 -0.1)">
       <use xlink:href="#DejaVuSans-32"/>
      </g>
     </g>
    </g>
    <g id="ytick_5">
     <g id="line2d_21">
      <path d="M 104.6784 107.244171 
L 1089.3312 107.244171 
" clip-path="url(#pdab57082d2)" style="fill: none; stroke: #b0b0b0; stroke-width: 0.8; stroke-linecap: square"/>
     </g>
     <g id="line2d_22">
      <g>
       <use xlink:href="#mc2a06ee8e5" x="104.6784" y="107.244171" style="stroke: #000000; stroke-width: 0.8"/>
      </g>
     </g>
     <g id="text_5">
      <!-- 4 -->
      <g transform="translate(91.3159 111.04339) scale(0.1 -0.1)">
       <use xlink:href="#DejaVuSans-34"/>
      </g>
     </g>
    </g>
    <g id="ytick_6">
     <g id="line2d_23">
      <path d="M 104.6784 76.269207 
L 1089.3312 76.269207 
" clip-path="url(#pdab57082d2)" style="fill: none; stroke: #b0b0b0; stroke-width: 0.8; stroke-linecap: square"/>
     </g>
     <g id="line2d_24">
      <g>
       <use xlink:href="#mc2a06ee8e5" x="104.6784" y="76.269207" style="stroke: #000000; stroke-width: 0.8"/>
      </g>
     </g>
     <g id="text_6">
      <!-- 6 -->
      <g transform="translate(91.3159 80.068425) scale(0.1 -0.1)">
       <defs>
        <path id="DejaVuSans-36" d="M 2113 2584 
Q 1688 2584 1439 2293 
Q 1191 2003 1191 1497 
Q 1191 994 1439 701 
Q 1688 409 2113 409 
Q 2538 409 2786 701 
Q 3034 994 3034 1497 
Q 3034 2003 2786 2293 
Q 2538 2584 2113 2584 
z
M 3366 4563 
L 3366 3988 
Q 3128 4100 2886 4159 
Q 2644 4219 2406 4219 
Q 1781 4219 1451 3797 
Q 1122 3375 1075 2522 
Q 1259 2794 1537 2939 
Q 1816 3084 2150 3084 
Q 2853 3084 3261 2657 
Q 3669 2231 3669 1497 
Q 3669 778 3244 343 
Q 2819 -91 2113 -91 
Q 1303 -91 875 529 
Q 447 1150 447 2328 
Q 447 3434 972 4092 
Q 1497 4750 2381 4750 
Q 2619 4750 2861 4703 
Q 3103 4656 3366 4563 
z
" transform="scale(0.015625)"/>
       </defs>
       <use xlink:href="#DejaVuSans-36"/>
      </g>
     </g>
    </g>
    <g id="ytick_7">
     <g id="line2d_25">
      <path d="M 104.6784 45.294242 
L 1089.3312 45.294242 
" clip-path="url(#pdab57082d2)" style="fill: none; stroke: #b0b0b0; stroke-width: 0.8; stroke-linecap: square"/>
     </g>
     <g id="line2d_26">
      <g>
       <use xlink:href="#mc2a06ee8e5" x="104.6784" y="45.294242" style="stroke: #000000; stroke-width: 0.8"/>
      </g>
     </g>
     <g id="text_7">
      <!-- 8 -->
      <g transform="translate(91.3159 49.09346) scale(0.1 -0.1)">
       <defs>
        <path id="DejaVuSans-38" d="M 2034 2216 
Q 1584 2216 1326 1975 
Q 1069 1734 1069 1313 
Q 1069 891 1326 650 
Q 1584 409 2034 409 
Q 2484 409 2743 651 
Q 3003 894 3003 1313 
Q 3003 1734 2745 1975 
Q 2488 2216 2034 2216 
z
M 1403 2484 
Q 997 2584 770 2862 
Q 544 3141 544 3541 
Q 544 4100 942 4425 
Q 1341 4750 2034 4750 
Q 2731 4750 3128 4425 
Q 3525 4100 3525 3541 
Q 3525 3141 3298 2862 
Q 3072 2584 2669 2484 
Q 3125 2378 3379 2068 
Q 3634 1759 3634 1313 
Q 3634 634 3220 271 
Q 2806 -91 2034 -91 
Q 1263 -91 848 271 
Q 434 634 434 1313 
Q 434 1759 690 2068 
Q 947 2378 1403 2484 
z
M 1172 3481 
Q 1172 3119 1398 2916 
Q 1625 2713 2034 2713 
Q 2441 2713 2670 2916 
Q 2900 3119 2900 3481 
Q 2900 3844 2670 4047 
Q 2441 4250 2034 4250 
Q 1625 4250 1398 4047 
Q 1172 3844 1172 3481 
z
" transform="scale(0.015625)"/>
       </defs>
       <use xlink:href="#DejaVuSans-38"/>
      </g>
     </g>
    </g>
    <g id="text_8">
     <!-- Velocity -->
     <g transform="translate(76.856525 161.15521) rotate(-90) scale(0.1 -0.1)">
      <defs>
       <path id="DejaVuSans-56" d="M 1831 0 
L 50 4666 
L 709 4666 
L 2188 738 
L 3669 4666 
L 4325 4666 
L 2547 0 
L 1831 0 
z
" transform="scale(0.015625)"/>
       <path id="DejaVuSans-65" d="M 3597 1894 
L 3597 1613 
L 953 1613 
Q 991 1019 1311 708 
Q 1631 397 2203 397 
Q 2534 397 2845 478 
Q 3156 559 3463 722 
L 3463 178 
Q 3153 47 2828 -22 
Q 2503 -91 2169 -91 
Q 1331 -91 842 396 
Q 353 884 353 1716 
Q 353 2575 817 3079 
Q 1281 3584 2069 3584 
Q 2775 3584 3186 3129 
Q 3597 2675 3597 1894 
z
M 3022 2063 
Q 3016 2534 2758 2815 
Q 2500 3097 2075 3097 
Q 1594 3097 1305 2825 
Q 1016 2553 972 2059 
L 3022 2063 
z
" transform="scale(0.015625)"/>
       <path id="DejaVuSans-6c" d="M 603 4863 
L 1178 4863 
L 1178 0 
L 603 0 
L 603 4863 
z
" transform="scale(0.015625)"/>
       <path id="DejaVuSans-6f" d="M 1959 3097 
Q 1497 3097 1228 2736 
Q 959 2375 959 1747 
Q 959 1119 1226 758 
Q 1494 397 1959 397 
Q 2419 397 2687 759 
Q 2956 1122 2956 1747 
Q 2956 2369 2687 2733 
Q 2419 3097 1959 3097 
z
M 1959 3584 
Q 2709 3584 3137 3096 
Q 3566 2609 3566 1747 
Q 3566 888 3137 398 
Q 2709 -91 1959 -91 
Q 1206 -91 779 398 
Q 353 888 353 1747 
Q 353 2609 779 3096 
Q 1206 3584 1959 3584 
z
" transform="scale(0.015625)"/>
       <path id="DejaVuSans-63" d="M 3122 3366 
L 3122 2828 
Q 2878 2963 2633 3030 
Q 2388 3097 2138 3097 
Q 1578 3097 1268 2742 
Q 959 2388 959 1747 
Q 959 1106 1268 751 
Q 1578 397 2138 397 
Q 2388 397 2633 464 
Q 2878 531 3122 666 
L 3122 134 
Q 2881 22 2623 -34 
Q 2366 -91 2075 -91 
Q 1284 -91 818 406 
Q 353 903 353 1747 
Q 353 2603 823 3093 
Q 1294 3584 2113 3584 
Q 2378 3584 2631 3529 
Q 2884 3475 3122 3366 
z
" transform="scale(0.015625)"/>
       <path id="DejaVuSans-69" d="M 603 3500 
L 1178 3500 
L 1178 0 
L 603 0 
L 603 3500 
z
M 603 4863 
L 1178 4863 
L 1178 4134 
L 603 4134 
L 603 4863 
z
" transform="scale(0.015625)"/>
       <path id="DejaVuSans-74" d="M 1172 4494 
L 1172 3500 
L 2356 3500 
L 2356 3053 
L 1172 3053 
L 1172 1153 
Q 1172 725 1289 603 
Q 1406 481 1766 481 
L 2356 481 
L 2356 0 
L 1766 0 
Q 1100 0 847 248 
Q 594 497 594 1153 
L 594 3053 
L 172 3053 
L 172 3500 
L 594 3500 
L 594 4494 
L 1172 4494 
z
" transform="scale(0.015625)"/>
       <path id="DejaVuSans-79" d="M 2059 -325 
Q 1816 -950 1584 -1140 
Q 1353 -1331 966 -1331 
L 506 -1331 
L 506 -850 
L 844 -850 
Q 1081 -850 1212 -737 
Q 1344 -625 1503 -206 
L 1606 56 
L 191 3500 
L 800 3500 
L 1894 763 
L 2988 3500 
L 3597 3500 
L 2059 -325 
z
" transform="scale(0.015625)"/>
      </defs>
      <use xlink:href="#DejaVuSans-56"/>
      <use xlink:href="#DejaVuSans-65" x="60.658203"/>
      <use xlink:href="#DejaVuSans-6c" x="122.181641"/>
      <use xlink:href="#DejaVuSans-6f" x="149.964844"/>
      <use xlink:href="#DejaVuSans-63" x="211.146484"/>
      <use xlink:href="#DejaVuSans-69" x="266.126953"/>
      <use xlink:href="#DejaVuSans-74" x="293.910156"/>
      <use xlink:href="#DejaVuSans-79" x="333.119141"/>
     </g>
    </g>
   </g>
   <g id="line2d_27">
    <path d="M 149.435345 169.194101 
L 150.33138 169.194101 
L 151.227415 168.712127 
L 152.12345 169.927488 
L 153.019485 168.712031 
L 153.91552 169.927005 
L 154.811555 168.711548 
L 155.70759 169.924668 
L 156.603625 168.709211 
L 157.49966 169.914106 
L 158.395695 168.698649 
L 159.29173 169.876119 
L 160.187765 168.660661 
L 161.0838 169.807343 
L 161.979835 168.591886 
L 162.87587 169.78172 
L 163.771905 168.566263 
L 164.66794 169.754611 
L 165.563974 168.539153 
L 166.460009 169.726971 
L 167.356044 168.511513 
L 168.252079 169.699167 
L 169.148114 168.483709 
L 170.044149 169.671323 
L 170.940184 168.455865 
L 171.836219 169.64348 
L 172.732254 168.428023 
L 173.628289 169.615651 
L 174.524324 168.400193 
L 175.420359 169.587839 
L 176.316394 168.372381 
L 177.212429 169.560045 
L 178.108464 168.344587 
L 179.004499 169.532271 
L 179.900534 168.316813 
L 180.796568 169.504515 
L 181.692603 168.289058 
L 182.588638 169.476779 
L 183.484673 168.261321 
L 184.380708 169.449062 
L 185.276743 168.233604 
L 186.172778 169.421364 
L 187.068813 168.205907 
L 187.964848 169.393686 
L 188.860883 168.178228 
L 189.756918 169.366026 
L 190.652953 168.150568 
L 191.548988 169.338386 
L 192.445023 168.122928 
L 193.341058 169.310764 
L 194.237093 168.095307 
L 195.133128 169.283162 
L 196.029163 168.067705 
L 196.925197 169.255579 
L 197.821232 168.040122 
L 198.717267 169.228015 
L 199.613302 168.012558 
L 200.509337 169.20047 
L 201.405372 167.985013 
L 202.301407 169.172944 
L 203.197442 167.957487 
L 204.093477 169.145438 
L 204.989512 167.92998 
L 205.885547 169.11795 
L 206.781582 167.902492 
L 207.677617 169.090481 
L 208.573652 167.875023 
L 209.469687 169.063031 
L 210.365722 167.847573 
L 211.261757 169.0356 
L 212.157792 167.820143 
L 213.053826 169.008188 
L 213.949861 167.792731 
L 214.845896 168.980796 
L 215.741931 167.765338 
L 216.637966 168.953422 
L 217.534001 167.737964 
L 218.430036 168.926067 
L 219.326071 167.710609 
L 220.222106 168.898731 
L 221.118141 167.683273 
L 222.014176 168.871413 
L 222.910211 167.655956 
L 223.806246 168.844115 
L 224.702281 167.628658 
L 225.598316 168.815517 
L 226.494351 167.600059 
L 227.390386 168.785541 
L 228.286421 167.570083 
L 229.182455 168.755039 
L 230.07849 167.539582 
L 230.974525 168.724335 
L 231.87056 167.508878 
L 232.766595 168.693542 
L 233.66263 167.478084 
L 234.558665 168.662699 
L 235.4547 167.447241 
L 236.350735 168.631821 
L 237.24677 167.416364 
L 238.142805 168.600913 
L 239.03884 167.385456 
L 239.934875 168.569978 
L 240.83091 167.35452 
L 241.726945 168.539015 
L 242.62298 167.323557 
L 243.519015 168.508025 
L 244.41505 167.292567 
L 245.311084 168.477008 
L 246.207119 167.26155 
L 247.103154 168.445964 
L 247.999189 167.230507 
L 248.895224 168.414894 
L 249.791259 167.199437 
L 250.687294 168.383797 
L 251.583329 167.16834 
L 252.479364 168.352673 
L 253.375399 167.137216 
L 254.271434 168.321523 
L 255.167469 167.106065 
L 256.063504 168.290346 
L 256.959539 167.074888 
L 257.855574 168.259141 
L 258.751609 167.043684 
L 259.647644 168.227911 
L 260.543679 167.012453 
L 261.439713 168.196653 
L 262.335748 166.981196 
L 263.231783 168.165369 
L 264.127818 166.949911 
L 265.023853 168.134058 
L 265.919888 166.9186 
L 266.815923 168.10272 
L 267.711958 166.887263 
L 268.607993 168.071355 
L 269.504028 166.855898 
L 270.400063 168.039964 
L 271.296098 166.824507 
L 272.192133 168.008546 
L 273.088168 166.793089 
L 273.984203 167.977101 
L 274.880238 166.761644 
L 275.776273 167.945629 
L 276.672308 166.730172 
L 277.568342 167.914131 
L 278.464377 166.698674 
L 279.360412 167.882606 
L 280.256447 166.667148 
L 281.152482 167.851054 
L 282.048517 166.635596 
L 282.944552 167.819475 
L 283.840587 166.604018 
L 284.736622 167.787869 
L 285.632657 166.572412 
L 286.528692 167.756237 
L 287.424727 166.54078 
L 288.320762 167.724578 
L 289.216797 166.50912 
L 290.112832 167.692892 
L 291.008867 166.477434 
L 291.904902 167.661179 
L 292.800937 166.445722 
L 293.696971 167.629439 
L 294.593006 166.413982 
L 295.489041 167.597673 
L 296.385076 166.382216 
L 297.281111 167.56588 
L 298.177146 166.350422 
L 299.073181 167.53406 
L 299.969216 166.318602 
L 300.865251 167.502213 
L 301.761286 166.286756 
L 302.657321 167.470339 
L 303.553356 166.254882 
L 304.449391 167.438439 
L 305.345426 166.222982 
L 306.241461 167.406511 
L 307.137496 166.191054 
L 308.033531 167.374557 
L 308.929565 166.1591 
L 309.8256 167.342576 
L 310.721635 166.127119 
L 311.61767 167.310568 
L 312.513705 166.095112 
L 313.40974 167.278534 
L 314.305775 166.063077 
L 315.20181 167.246472 
L 316.097845 166.031016 
L 316.99388 167.214384 
L 317.889915 165.998928 
L 318.78595 167.182269 
L 319.681985 165.966813 
L 320.57802 167.150127 
L 321.474055 165.934671 
L 322.37009 167.117959 
L 323.266125 165.902503 
L 324.16216 167.085763 
L 325.058194 165.870307 
L 325.954229 167.053541 
L 326.850264 165.838086 
L 327.746299 167.021292 
L 328.642334 165.805837 
L 329.538369 166.989017 
L 330.434404 165.773562 
L 331.330439 166.956714 
L 332.226474 165.74126 
L 333.122509 166.924385 
L 334.018544 165.708932 
L 334.914579 166.89203 
L 335.810614 165.676577 
L 336.706649 166.859647 
L 337.602684 165.644196 
L 338.498719 166.827239 
L 339.394754 165.611789 
L 340.290789 166.794804 
L 341.186823 165.579356 
L 342.082858 166.762343 
L 342.978893 165.546897 
L 343.874928 166.729855 
L 344.770963 165.514412 
L 345.666998 166.697342 
L 346.563033 165.481902 
L 347.459068 166.664803 
L 348.355103 165.449366 
L 349.251138 166.632238 
L 350.147173 165.416806 
L 351.043208 166.599647 
L 351.939243 165.384221 
L 352.835278 166.567032 
L 353.731313 165.351612 
L 354.627348 166.534392 
L 355.523383 165.318979 
L 356.419418 166.501727 
L 357.315452 165.286324 
L 358.211487 166.469039 
L 359.107522 165.253645 
L 360.003557 166.436326 
L 360.899592 165.220945 
L 361.795627 166.403591 
L 362.691662 165.188224 
L 363.587697 166.370833 
L 364.483732 165.155482 
L 365.379767 166.338054 
L 366.275802 165.122722 
L 367.171837 166.305253 
L 368.067872 165.089942 
L 368.963907 166.272432 
L 369.859942 165.057146 
L 370.755977 166.239592 
L 371.652012 165.024334 
L 372.548047 166.206733 
L 373.444081 164.991507 
L 374.340116 166.173858 
L 375.236151 164.958667 
L 376.132186 166.140966 
L 377.028221 164.925816 
L 377.924256 166.108059 
L 378.820291 164.892955 
L 379.716326 166.075139 
L 380.612361 164.860086 
L 381.508396 166.042207 
L 382.404431 164.827212 
L 383.300466 166.009265 
L 384.196501 164.794335 
L 385.092536 165.976315 
L 385.988571 164.761456 
L 386.884606 165.943358 
L 387.780641 164.728579 
L 388.676676 165.910397 
L 389.57271 164.695706 
L 390.468745 165.877434 
L 391.36478 164.66284 
L 392.260815 165.844471 
L 393.15685 164.629983 
L 394.052885 165.81151 
L 394.94892 164.59714 
L 395.844955 165.778554 
L 396.74099 164.564313 
L 397.637025 165.745606 
L 398.53306 164.531505 
L 399.429095 165.712668 
L 400.32513 164.49872 
L 401.221165 165.679743 
L 402.1172 164.465961 
L 403.013235 165.646834 
L 403.90927 164.433233 
L 404.805305 165.613944 
L 405.701339 164.400537 
L 406.597374 165.581075 
L 407.493409 164.367879 
L 408.389444 165.548231 
L 409.285479 164.335261 
L 410.181514 165.515415 
L 411.077549 164.302688 
L 411.973584 165.48263 
L 412.869619 164.270162 
L 413.765654 165.449877 
L 414.661689 164.237687 
L 415.557724 165.417161 
L 416.453759 164.205267 
L 417.349794 165.384484 
L 418.245829 164.172904 
L 420.933933 164.569048 
L 423.622038 164.644379 
L 432.582388 164.431545 
L 467.527751 161.994039 
L 547.274861 156.578441 
L 628.814041 151.263978 
L 687.056312 147.598892 
L 687.952347 147.26508 
L 689.744417 147.067181 
L 692.432522 146.974472 
L 825.941728 145.698304 
L 1044.574255 143.75175 
L 1044.574255 143.75175 
" clip-path="url(#pdab57082d2)" style="fill: none; stroke: #1f77b4; stroke-width: 2; stroke-linecap: square"/>
   </g>
   <g id="line2d_28">
    <path d="M 149.435345 169.194101 
L 150.33138 168.54435 
L 151.227415 176.558399 
L 152.12345 154.023568 
L 153.019485 175.312675 
L 153.91552 152.793086 
L 154.811555 174.090397 
L 155.70759 151.612275 
L 156.603625 172.917458 
L 157.49966 150.59493 
L 158.395695 171.906895 
L 159.29173 150.083843 
L 160.187765 171.399215 
L 161.0838 150.464451 
L 161.979835 172.109028 
L 162.87587 150.394233 
L 163.771905 172.039278 
L 164.66794 150.351642 
L 165.563974 171.996971 
L 166.460009 150.319161 
L 167.356044 171.964706 
L 168.252079 150.290052 
L 169.148114 171.935791 
L 170.044149 150.262038 
L 170.940184 171.907964 
L 171.836219 150.234386 
L 172.732254 171.880497 
L 173.628289 150.206862 
L 174.524324 171.853156 
L 175.420359 150.179392 
L 176.316394 171.825869 
L 177.212429 150.151952 
L 178.108464 171.798612 
L 179.004499 150.124535 
L 179.900534 171.771378 
L 180.796568 150.097138 
L 181.692603 171.744163 
L 182.588638 150.069761 
L 183.484673 171.716969 
L 184.380708 150.042403 
L 185.276743 171.689794 
L 186.172778 150.015065 
L 187.068813 171.662637 
L 187.964848 149.987746 
L 188.860883 171.6355 
L 189.756918 149.960446 
L 190.652953 171.608383 
L 191.548988 149.933165 
L 192.445023 171.581284 
L 193.341058 149.905904 
L 194.237093 171.554204 
L 195.133128 149.878662 
L 196.029163 171.527144 
L 196.925197 149.851439 
L 197.821232 171.500102 
L 198.717267 149.824235 
L 199.613302 171.47308 
L 200.509337 149.79705 
L 201.405372 171.446076 
L 202.301407 149.769885 
L 203.197442 171.419092 
L 204.093477 149.742739 
L 204.989512 171.392127 
L 205.885547 149.715612 
L 206.781582 171.365181 
L 207.677617 149.688504 
L 208.573652 171.338253 
L 209.469687 149.661415 
L 210.365722 171.311345 
L 211.261757 149.634345 
L 212.157792 171.284456 
L 213.053826 149.607294 
L 213.949861 171.257585 
L 214.845896 149.580263 
L 215.741931 171.230734 
L 216.637966 149.55325 
L 217.534001 171.203902 
L 218.430036 149.526257 
L 219.326071 171.177088 
L 220.222106 149.499282 
L 221.118141 171.150293 
L 222.014176 149.472327 
L 222.910211 171.123518 
L 223.806246 149.44539 
L 224.702281 171.096761 
L 225.598316 149.44217 
L 226.494351 171.093562 
L 227.390386 149.463746 
L 228.286421 171.114994 
L 229.182455 149.494475 
L 230.07849 171.145518 
L 230.974525 149.52844 
L 231.87056 171.179257 
L 232.766595 149.563556 
L 233.66263 171.214139 
L 234.558665 149.599093 
L 235.4547 171.249438 
L 236.350735 149.634788 
L 237.24677 171.284896 
L 238.142805 149.670548 
L 239.03884 171.320417 
L 239.934875 149.706335 
L 240.83091 171.355966 
L 241.726945 149.742137 
L 242.62298 171.391529 
L 243.519015 149.777947 
L 244.41505 171.4271 
L 245.311084 149.813764 
L 246.207119 171.462678 
L 247.103154 149.849586 
L 247.999189 171.498262 
L 248.895224 149.885414 
L 249.791259 171.533851 
L 250.687294 149.921246 
L 251.583329 171.569444 
L 252.479364 149.957084 
L 253.375399 171.605043 
L 254.271434 149.992926 
L 255.167469 171.640647 
L 256.063504 150.028774 
L 256.959539 171.676255 
L 257.855574 150.064626 
L 258.751609 171.711868 
L 259.647644 150.100483 
L 260.543679 171.747487 
L 261.439713 150.136346 
L 262.335748 171.78311 
L 263.231783 150.172213 
L 264.127818 171.818738 
L 265.023853 150.208085 
L 265.919888 171.85437 
L 266.815923 150.243961 
L 267.711958 171.890008 
L 268.607993 150.279843 
L 269.504028 171.925651 
L 270.400063 150.31573 
L 271.296098 171.961298 
L 272.192133 150.351621 
L 273.088168 171.99695 
L 273.984203 150.387518 
L 274.880238 172.032607 
L 275.776273 150.423419 
L 276.672308 172.068269 
L 277.568342 150.459325 
L 278.464377 172.103936 
L 279.360412 150.495236 
L 280.256447 172.139607 
L 281.152482 150.531152 
L 282.048517 172.175284 
L 282.944552 150.567072 
L 283.840587 172.210965 
L 284.736622 150.602998 
L 285.632657 172.246651 
L 286.528692 150.638928 
L 287.424727 172.282342 
L 288.320762 150.674863 
L 289.216797 172.318037 
L 290.112832 150.710803 
L 291.008867 172.353738 
L 291.904902 150.746748 
L 292.800937 172.389443 
L 293.696971 150.782698 
L 294.593006 172.425153 
L 295.489041 150.818652 
L 296.385076 172.460868 
L 297.281111 150.854612 
L 298.177146 172.496587 
L 299.073181 150.890576 
L 299.969216 172.532312 
L 300.865251 150.926545 
L 301.761286 172.568041 
L 302.657321 150.962519 
L 303.553356 172.603775 
L 304.449391 150.998497 
L 305.345426 172.639513 
L 306.241461 151.03448 
L 307.137496 172.675256 
L 308.033531 151.070468 
L 308.929565 172.711004 
L 309.8256 151.106461 
L 310.721635 172.746757 
L 311.61767 151.142458 
L 312.513705 172.782514 
L 313.40974 151.17846 
L 314.305775 172.818275 
L 315.20181 151.214467 
L 316.097845 172.854041 
L 316.99388 151.250478 
L 317.889915 172.88981 
L 318.78595 151.286493 
L 319.681985 172.925584 
L 320.57802 151.322513 
L 321.474055 172.961361 
L 322.37009 151.358536 
L 323.266125 172.997141 
L 324.16216 151.394564 
L 325.058194 173.032925 
L 325.954229 151.430594 
L 326.850264 173.06871 
L 327.746299 151.466628 
L 328.642334 173.104497 
L 329.538369 151.502665 
L 330.434404 173.140285 
L 331.330439 151.538703 
L 332.226474 173.176073 
L 333.122509 151.574742 
L 334.018544 173.211859 
L 334.914579 151.610782 
L 335.810614 173.247642 
L 336.706649 151.646821 
L 337.602684 173.28342 
L 338.498719 151.682859 
L 339.394754 173.319192 
L 340.290789 151.718892 
L 341.186823 173.354954 
L 342.082858 151.754921 
L 342.978893 173.390704 
L 343.874928 151.790942 
L 344.770963 173.426439 
L 345.666998 151.826953 
L 346.563033 173.462153 
L 347.459068 151.862952 
L 348.355103 173.497844 
L 349.251138 151.898934 
L 350.147173 173.533506 
L 351.043208 151.934896 
L 351.939243 173.569132 
L 352.835278 151.970833 
L 353.731313 173.604715 
L 354.627348 152.006741 
L 355.523383 173.640249 
L 356.419418 152.042613 
L 357.315452 173.675723 
L 358.211487 152.078443 
L 359.107522 173.711129 
L 360.003557 152.114223 
L 360.899592 173.746454 
L 361.795627 152.149945 
L 362.691662 173.781687 
L 363.587697 152.185599 
L 364.483732 173.816813 
L 365.379767 152.221174 
L 366.275802 173.851816 
L 367.171837 152.25666 
L 368.067872 173.886681 
L 368.963907 152.292041 
L 369.859942 173.921387 
L 370.755977 152.327305 
L 371.652012 173.955913 
L 372.548047 152.362435 
L 373.444081 173.990239 
L 374.340116 152.397414 
L 375.236151 174.024338 
L 376.132186 152.432223 
L 377.028221 174.058184 
L 377.924256 152.46684 
L 378.820291 174.091747 
L 379.716326 152.501245 
L 380.612361 174.124998 
L 381.508396 152.535411 
L 382.404431 174.157902 
L 383.300466 152.569314 
L 384.196501 174.190424 
L 385.092536 152.602925 
L 385.988571 174.222525 
L 386.884606 152.636216 
L 387.780641 174.254167 
L 388.676676 152.669154 
L 389.57271 174.285305 
L 390.468745 152.701707 
L 391.36478 174.315896 
L 392.260815 152.733839 
L 393.15685 174.345894 
L 394.052885 152.765515 
L 394.94892 174.37525 
L 395.844955 152.796697 
L 396.74099 174.403914 
L 397.637025 152.827346 
L 398.53306 174.431836 
L 399.429095 152.857421 
L 400.32513 174.458962 
L 401.221165 152.886882 
L 402.1172 174.48524 
L 403.013235 152.915688 
L 403.90927 174.510616 
L 404.805305 152.943797 
L 405.701339 174.535037 
L 406.597374 152.971167 
L 407.493409 174.558449 
L 408.389444 152.997757 
L 409.285479 174.580799 
L 410.181514 153.023527 
L 411.077549 174.602038 
L 411.973584 153.048437 
L 412.869619 174.622114 
L 413.765654 153.072449 
L 414.661689 174.640982 
L 415.557724 153.095529 
L 416.453759 174.658595 
L 417.349794 153.117642 
L 418.245829 174.674913 
L 420.037899 168.863151 
L 420.933933 166.55288 
L 421.829968 165.148505 
L 422.726003 164.548944 
L 423.622038 164.321171 
L 425.414108 164.185733 
L 429.894283 164.089156 
L 430.790318 163.118866 
L 431.686353 162.689978 
L 433.478423 162.300166 
L 437.958597 161.793243 
L 479.176205 157.73735 
L 531.146232 152.826773 
L 584.908328 147.968003 
L 641.35853 143.092076 
L 686.160277 139.376642 
L 687.056312 82.257643 
L 687.952347 218.234786 
L 688.848382 122.849652 
L 689.744417 132.386597 
L 691.536487 113.138553 
L 692.432522 163.931432 
L 693.328556 132.198329 
L 694.224591 115.245274 
L 695.120626 45.674966 
L 696.016661 159.106247 
L 696.912696 150.912742 
L 697.808731 165.468601 
L 698.704766 64.300893 
L 699.600801 145.871514 
L 700.496836 139.086027 
L 701.392871 180.258383 
L 702.288906 95.441386 
L 703.184941 167.581359 
L 704.080976 226.955111 
L 704.977011 43.472934 
L 705.873046 158.413601 
L 706.769081 89.427032 
L 707.665116 112.182689 
L 708.561151 209.078904 
L 709.457185 162.084398 
L 711.249255 106.648907 
L 712.14529 115.256263 
L 713.041325 180.955703 
L 713.93736 107.928361 
L 714.833395 140.459546 
L 715.72943 70.816655 
L 716.625465 171.640792 
L 717.5215 118.200845 
L 718.417535 101.033924 
L 719.31357 123.568994 
L 720.209605 168.780861 
L 721.10564 220.504455 
L 722.001675 120.146369 
L 722.89771 215.32988 
L 723.793745 167.172454 
L 725.585814 134.440706 
L 726.481849 181.480858 
L 727.377884 141.209703 
L 728.273919 176.385105 
L 729.169954 171.391697 
L 730.065989 176.797753 
L 730.962024 94.734762 
L 731.858059 128.569292 
L 732.754094 133.21797 
L 733.650129 213.934993 
L 734.546164 172.205411 
L 735.442199 139.3774 
L 736.338234 151.64888 
L 737.234269 119.859786 
L 738.130304 224.617844 
L 739.026339 80.140009 
L 739.922374 147.893303 
L 740.818409 174.423452 
L 741.714443 117.511553 
L 742.610478 237.504129 
L 743.506513 203.666361 
L 744.402548 64.176583 
L 745.298583 84.288851 
L 746.194618 146.454237 
L 747.090653 124.680192 
L 747.986688 141.618528 
L 748.882723 71.868309 
L 749.778758 114.690205 
L 750.674793 134.666136 
L 751.570828 169.507297 
L 752.466863 131.156231 
L 753.362898 177.682773 
L 754.258933 101.44337 
L 755.154968 141.351503 
L 756.051003 133.483205 
L 756.947038 187.427983 
L 757.843072 168.616045 
L 758.739107 152.267936 
L 759.635142 121.757562 
L 760.531177 136.271532 
L 761.427212 240.197969 
L 762.323247 176.51025 
L 763.219282 131.266155 
L 764.115317 116.118271 
L 765.011352 155.377884 
L 765.907387 139.266697 
L 766.803422 118.343851 
L 767.699457 172.06329 
L 768.595492 191.318456 
L 769.491527 176.147357 
L 770.387562 138.741658 
L 771.283597 116.1247 
L 772.179632 132.087542 
L 773.075667 129.987337 
L 773.971701 138.445287 
L 774.867736 152.240888 
L 775.763771 104.20067 
L 776.659806 193.741529 
L 777.555841 147.018419 
L 778.451876 93.976297 
L 780.243946 193.30009 
L 781.139981 147.658742 
L 782.036016 122.059225 
L 782.932051 48.494149 
L 783.828086 147.297428 
L 784.724121 191.109452 
L 785.620156 169.812859 
L 786.516191 241.953854 
L 787.412226 191.730507 
L 788.308261 151.567058 
L 790.10033 161.925621 
L 790.996365 157.992148 
L 791.8924 162.060195 
L 792.788435 146.353573 
L 793.68447 151.09308 
L 794.580505 151.802965 
L 795.47654 155.263591 
L 796.372575 175.41435 
L 797.26861 149.648261 
L 798.164645 65.169965 
L 799.06068 178.895455 
L 799.956715 97.171566 
L 800.85275 185.763054 
L 802.64482 65.002527 
L 803.540855 136.005558 
L 804.43689 87.820484 
L 805.332924 110.339424 
L 806.228959 91.063175 
L 807.124994 216.238336 
L 808.021029 116.124187 
L 808.917064 95.829096 
L 809.813099 184.838349 
L 810.709134 66.008381 
L 811.605169 220.121693 
L 812.501204 143.296447 
L 813.397239 129.835096 
L 814.293274 160.129337 
L 815.189309 123.464587 
L 816.085344 100.849118 
L 816.981379 201.960376 
L 817.877414 187.884957 
L 818.773449 202.039484 
L 819.669484 205.901042 
L 820.565519 112.584395 
L 821.461553 105.901836 
L 822.357588 148.827556 
L 823.253623 111.779156 
L 824.149658 141.666838 
L 825.045693 110.68691 
L 826.837763 140.371632 
L 827.733798 143.540765 
L 828.629833 203.45111 
L 829.525868 145.090309 
L 830.421903 182.44252 
L 831.317938 154.271562 
L 832.213973 96.931789 
L 833.110008 164.195472 
L 834.006043 133.567864 
L 834.902078 110.261808 
L 835.798113 145.60917 
L 836.694148 168.074084 
L 837.590182 117.961334 
L 839.382252 133.527479 
L 840.278287 183.855195 
L 841.174322 182.312676 
L 842.070357 104.84747 
L 842.966392 156.765242 
L 843.862427 108.707813 
L 844.758462 126.070628 
L 845.654497 117.80951 
L 846.550532 128.129016 
L 847.446567 156.301542 
L 848.342602 177.14368 
L 850.134672 145.632597 
L 851.030707 105.74081 
L 851.926742 49.520726 
L 852.822777 164.268832 
L 853.718811 135.021251 
L 854.614846 144.855135 
L 855.510881 81.497879 
L 856.406916 98.982813 
L 857.302951 127.323276 
L 858.198986 102.737385 
L 859.095021 63.771209 
L 859.991056 145.342736 
L 860.887091 134.492807 
L 861.783126 172.411553 
L 862.679161 108.79164 
L 863.575196 106.315841 
L 864.471231 124.967973 
L 865.367266 92.87779 
L 866.263301 117.063335 
L 867.159336 129.575562 
L 868.055371 176.107432 
L 868.951406 177.369353 
L 869.84744 247.168444 
L 870.743475 138.764465 
L 871.63951 141.630977 
L 872.535545 132.892713 
L 873.43158 173.605052 
L 874.327615 178.545941 
L 875.22365 185.048329 
L 876.119685 217.37217 
L 877.01572 146.665711 
L 877.911755 144.391572 
L 878.80779 97.349998 
L 879.703825 203.362306 
L 880.59986 173.927925 
L 881.495895 167.752849 
L 882.39193 151.361592 
L 883.287965 202.422205 
L 884.184 123.058035 
L 885.080035 110.093084 
L 885.976069 192.326929 
L 886.872104 183.095822 
L 887.768139 193.94809 
L 888.664174 190.169415 
L 889.560209 77.165056 
L 890.456244 118.178308 
L 891.352279 202.092697 
L 892.248314 227.001321 
L 894.040384 82.807069 
L 894.936419 108.569973 
L 895.832454 53.438142 
L 896.728489 194.721721 
L 897.624524 155.361944 
L 898.520559 179.423266 
L 899.416594 147.794328 
L 900.312629 108.359227 
L 901.208663 135.061467 
L 902.104698 144.11741 
L 903.000733 88.65249 
L 903.896768 174.133656 
L 904.792803 225.793775 
L 906.584873 136.522818 
L 907.480908 124.899601 
L 908.376943 153.726468 
L 909.272978 171.494027 
L 910.169013 103.952307 
L 911.065048 87.562318 
L 911.961083 186.49534 
L 912.857118 136.658986 
L 913.753153 178.85019 
L 914.649188 177.916462 
L 915.545223 194.665522 
L 916.441258 182.209948 
L 917.337292 147.919186 
L 918.233327 171.027748 
L 919.129362 117.56856 
L 920.025397 180.108028 
L 920.921432 146.691169 
L 921.817467 149.716214 
L 922.713502 167.415854 
L 923.609537 138.214276 
L 924.505572 116.80107 
L 925.401607 172.454739 
L 926.297642 159.989819 
L 927.193677 184.7115 
L 928.089712 92.944217 
L 928.985747 160.411384 
L 929.881782 178.354808 
L 930.777817 150.392619 
L 931.673852 131.795871 
L 932.569887 176.587391 
L 933.465921 168.354151 
L 934.361956 127.505582 
L 935.257991 111.712726 
L 936.154026 168.31662 
L 937.050061 142.49391 
L 937.946096 142.664822 
L 938.842131 138.535079 
L 939.738166 86.491516 
L 940.634201 131.450832 
L 941.530236 157.031238 
L 942.426271 197.353739 
L 944.218341 97.827315 
L 945.114376 135.265879 
L 946.010411 146.64672 
L 946.906446 145.098523 
L 947.802481 94.727857 
L 949.59455 131.067482 
L 950.490585 143.801227 
L 951.38662 89.004241 
L 952.282655 122.233724 
L 953.17869 92.822776 
L 954.074725 206.701345 
L 954.97076 95.426476 
L 955.866795 133.49288 
L 956.76283 217.484073 
L 957.658865 156.623568 
L 958.5549 155.273801 
L 959.450935 138.685782 
L 960.34697 145.812702 
L 961.243005 167.155984 
L 962.13904 170.037312 
L 963.035075 180.529915 
L 963.93111 126.582063 
L 964.827145 192.042396 
L 965.723179 72.526445 
L 966.619214 200.464969 
L 967.515249 192.661463 
L 968.411284 174.911959 
L 969.307319 108.146611 
L 970.203354 161.632553 
L 971.099389 172.621646 
L 971.995424 138.058789 
L 972.891459 162.305077 
L 973.787494 35.910726 
L 974.683529 43.925645 
L 975.579564 135.027202 
L 976.475599 156.368832 
L 977.371634 96.711932 
L 978.267669 139.328306 
L 979.163704 190.771786 
L 980.059739 147.115221 
L 980.955774 197.361638 
L 981.851808 179.741962 
L 982.747843 173.697378 
L 983.643878 134.350937 
L 984.539913 84.961036 
L 985.435948 106.894703 
L 986.331983 170.116557 
L 987.228018 200.434886 
L 988.124053 226.855328 
L 989.020088 200.861091 
L 989.916123 159.763982 
L 990.812158 155.928037 
L 991.708193 218.287223 
L 992.604228 118.843664 
L 993.500263 99.416545 
L 994.396298 142.149158 
L 995.292333 140.396395 
L 996.188368 204.71362 
L 997.084403 37.471049 
L 997.980437 187.394672 
L 998.876472 190.493802 
L 999.772507 165.303216 
L 1000.668542 158.854688 
L 1001.564577 134.184902 
L 1002.460612 125.254266 
L 1003.356647 171.080927 
L 1004.252682 133.730786 
L 1005.148717 129.362329 
L 1006.044752 164.094546 
L 1006.940787 167.275532 
L 1007.836822 165.500903 
L 1008.732857 116.417255 
L 1009.628892 168.36804 
L 1010.524927 135.427041 
L 1011.420962 190.279624 
L 1012.316997 133.227277 
L 1013.213032 138.979664 
L 1014.109066 133.992902 
L 1015.005101 122.753228 
L 1015.901136 147.293265 
L 1016.797171 115.418365 
L 1017.693206 142.16257 
L 1018.589241 111.917689 
L 1019.485276 183.537997 
L 1020.381311 133.286019 
L 1021.277346 137.594823 
L 1022.173381 166.699969 
L 1023.069416 188.65823 
L 1023.965451 76.254396 
L 1024.861486 111.254662 
L 1025.757521 178.472732 
L 1026.653556 143.32438 
L 1027.549591 177.05206 
L 1028.445626 234.669306 
L 1029.34166 145.821063 
L 1030.237695 128.971217 
L 1031.13373 161.550808 
L 1032.029765 155.759346 
L 1032.9258 159.720509 
L 1033.821835 164.578387 
L 1034.71787 177.380145 
L 1035.613905 147.161889 
L 1036.50994 156.701572 
L 1037.405975 113.929517 
L 1038.30201 172.429591 
L 1039.198045 87.004533 
L 1040.09408 129.561429 
L 1040.990115 117.850586 
L 1041.88615 186.587063 
L 1042.782185 161.545871 
L 1043.67822 175.226354 
L 1044.574255 151.401048 
L 1044.574255 151.401048 
" clip-path="url(#pdab57082d2)" style="fill: none; stroke: #ff7f0e; stroke-opacity: 0.5; stroke-width: 1.5; stroke-linecap: square"/>
   </g>
   <g id="patch_3">
    <path d="M 104.6784 257.73133 
L 104.6784 25.34784 
" style="fill: none; stroke: #000000; stroke-width: 0.8; stroke-linejoin: miter; stroke-linecap: square"/>
   </g>
   <g id="patch_4">
    <path d="M 1089.3312 257.73133 
L 1089.3312 25.34784 
" style="fill: none; stroke: #000000; stroke-width: 0.8; stroke-linejoin: miter; stroke-linecap: square"/>
   </g>
   <g id="patch_5">
    <path d="M 104.6784 257.73133 
L 1089.3312 257.73133 
" style="fill: none; stroke: #000000; stroke-width: 0.8; stroke-linejoin: miter; stroke-linecap: square"/>
   </g>
   <g id="patch_6">
    <path d="M 104.6784 25.34784 
L 1089.3312 25.34784 
" style="fill: none; stroke: #000000; stroke-width: 0.8; stroke-linejoin: miter; stroke-linecap: square"/>
   </g>
   <g id="text_9">
    <!-- Terrain Response 2: Closed-Loop Performance -->
    <g transform="translate(459.68355 19.34784) scale(0.12 -0.12)">
     <defs>
      <path id="DejaVuSans-54" d="M -19 4666 
L 3928 4666 
L 3928 4134 
L 2272 4134 
L 2272 0 
L 1638 0 
L 1638 4134 
L -19 4134 
L -19 4666 
z
" transform="scale(0.015625)"/>
      <path id="DejaVuSans-72" d="M 2631 2963 
Q 2534 3019 2420 3045 
Q 2306 3072 2169 3072 
Q 1681 3072 1420 2755 
Q 1159 2438 1159 1844 
L 1159 0 
L 581 0 
L 581 3500 
L 1159 3500 
L 1159 2956 
Q 1341 3275 1631 3429 
Q 1922 3584 2338 3584 
Q 2397 3584 2469 3576 
Q 2541 3569 2628 3553 
L 2631 2963 
z
" transform="scale(0.015625)"/>
      <path id="DejaVuSans-61" d="M 2194 1759 
Q 1497 1759 1228 1600 
Q 959 1441 959 1056 
Q 959 750 1161 570 
Q 1363 391 1709 391 
Q 2188 391 2477 730 
Q 2766 1069 2766 1631 
L 2766 1759 
L 2194 1759 
z
M 3341 1997 
L 3341 0 
L 2766 0 
L 2766 531 
Q 2569 213 2275 61 
Q 1981 -91 1556 -91 
Q 1019 -91 701 211 
Q 384 513 384 1019 
Q 384 1609 779 1909 
Q 1175 2209 1959 2209 
L 2766 2209 
L 2766 2266 
Q 2766 2663 2505 2880 
Q 2244 3097 1772 3097 
Q 1472 3097 1187 3025 
Q 903 2953 641 2809 
L 641 3341 
Q 956 3463 1253 3523 
Q 1550 3584 1831 3584 
Q 2591 3584 2966 3190 
Q 3341 2797 3341 1997 
z
" transform="scale(0.015625)"/>
      <path id="DejaVuSans-6e" d="M 3513 2113 
L 3513 0 
L 2938 0 
L 2938 2094 
Q 2938 2591 2744 2837 
Q 2550 3084 2163 3084 
Q 1697 3084 1428 2787 
Q 1159 2491 1159 1978 
L 1159 0 
L 581 0 
L 581 3500 
L 1159 3500 
L 1159 2956 
Q 1366 3272 1645 3428 
Q 1925 3584 2291 3584 
Q 2894 3584 3203 3211 
Q 3513 2838 3513 2113 
z
" transform="scale(0.015625)"/>
      <path id="DejaVuSans-20" transform="scale(0.015625)"/>
      <path id="DejaVuSans-52" d="M 2841 2188 
Q 3044 2119 3236 1894 
Q 3428 1669 3622 1275 
L 4263 0 
L 3584 0 
L 2988 1197 
Q 2756 1666 2539 1819 
Q 2322 1972 1947 1972 
L 1259 1972 
L 1259 0 
L 628 0 
L 628 4666 
L 2053 4666 
Q 2853 4666 3247 4331 
Q 3641 3997 3641 3322 
Q 3641 2881 3436 2590 
Q 3231 2300 2841 2188 
z
M 1259 4147 
L 1259 2491 
L 2053 2491 
Q 2509 2491 2742 2702 
Q 2975 2913 2975 3322 
Q 2975 3731 2742 3939 
Q 2509 4147 2053 4147 
L 1259 4147 
z
" transform="scale(0.015625)"/>
      <path id="DejaVuSans-73" d="M 2834 3397 
L 2834 2853 
Q 2591 2978 2328 3040 
Q 2066 3103 1784 3103 
Q 1356 3103 1142 2972 
Q 928 2841 928 2578 
Q 928 2378 1081 2264 
Q 1234 2150 1697 2047 
L 1894 2003 
Q 2506 1872 2764 1633 
Q 3022 1394 3022 966 
Q 3022 478 2636 193 
Q 2250 -91 1575 -91 
Q 1294 -91 989 -36 
Q 684 19 347 128 
L 347 722 
Q 666 556 975 473 
Q 1284 391 1588 391 
Q 1994 391 2212 530 
Q 2431 669 2431 922 
Q 2431 1156 2273 1281 
Q 2116 1406 1581 1522 
L 1381 1569 
Q 847 1681 609 1914 
Q 372 2147 372 2553 
Q 372 3047 722 3315 
Q 1072 3584 1716 3584 
Q 2034 3584 2315 3537 
Q 2597 3491 2834 3397 
z
" transform="scale(0.015625)"/>
      <path id="DejaVuSans-70" d="M 1159 525 
L 1159 -1331 
L 581 -1331 
L 581 3500 
L 1159 3500 
L 1159 2969 
Q 1341 3281 1617 3432 
Q 1894 3584 2278 3584 
Q 2916 3584 3314 3078 
Q 3713 2572 3713 1747 
Q 3713 922 3314 415 
Q 2916 -91 2278 -91 
Q 1894 -91 1617 61 
Q 1341 213 1159 525 
z
M 3116 1747 
Q 3116 2381 2855 2742 
Q 2594 3103 2138 3103 
Q 1681 3103 1420 2742 
Q 1159 2381 1159 1747 
Q 1159 1113 1420 752 
Q 1681 391 2138 391 
Q 2594 391 2855 752 
Q 3116 1113 3116 1747 
z
" transform="scale(0.015625)"/>
      <path id="DejaVuSans-3a" d="M 750 794 
L 1409 794 
L 1409 0 
L 750 0 
L 750 794 
z
M 750 3309 
L 1409 3309 
L 1409 2516 
L 750 2516 
L 750 3309 
z
" transform="scale(0.015625)"/>
      <path id="DejaVuSans-43" d="M 4122 4306 
L 4122 3641 
Q 3803 3938 3442 4084 
Q 3081 4231 2675 4231 
Q 1875 4231 1450 3742 
Q 1025 3253 1025 2328 
Q 1025 1406 1450 917 
Q 1875 428 2675 428 
Q 3081 428 3442 575 
Q 3803 722 4122 1019 
L 4122 359 
Q 3791 134 3420 21 
Q 3050 -91 2638 -91 
Q 1578 -91 968 557 
Q 359 1206 359 2328 
Q 359 3453 968 4101 
Q 1578 4750 2638 4750 
Q 3056 4750 3426 4639 
Q 3797 4528 4122 4306 
z
" transform="scale(0.015625)"/>
      <path id="DejaVuSans-64" d="M 2906 2969 
L 2906 4863 
L 3481 4863 
L 3481 0 
L 2906 0 
L 2906 525 
Q 2725 213 2448 61 
Q 2172 -91 1784 -91 
Q 1150 -91 751 415 
Q 353 922 353 1747 
Q 353 2572 751 3078 
Q 1150 3584 1784 3584 
Q 2172 3584 2448 3432 
Q 2725 3281 2906 2969 
z
M 947 1747 
Q 947 1113 1208 752 
Q 1469 391 1925 391 
Q 2381 391 2643 752 
Q 2906 1113 2906 1747 
Q 2906 2381 2643 2742 
Q 2381 3103 1925 3103 
Q 1469 3103 1208 2742 
Q 947 2381 947 1747 
z
" transform="scale(0.015625)"/>
      <path id="DejaVuSans-2d" d="M 313 2009 
L 1997 2009 
L 1997 1497 
L 313 1497 
L 313 2009 
z
" transform="scale(0.015625)"/>
      <path id="DejaVuSans-4c" d="M 628 4666 
L 1259 4666 
L 1259 531 
L 3531 531 
L 3531 0 
L 628 0 
L 628 4666 
z
" transform="scale(0.015625)"/>
      <path id="DejaVuSans-50" d="M 1259 4147 
L 1259 2394 
L 2053 2394 
Q 2494 2394 2734 2622 
Q 2975 2850 2975 3272 
Q 2975 3691 2734 3919 
Q 2494 4147 2053 4147 
L 1259 4147 
z
M 628 4666 
L 2053 4666 
Q 2838 4666 3239 4311 
Q 3641 3956 3641 3272 
Q 3641 2581 3239 2228 
Q 2838 1875 2053 1875 
L 1259 1875 
L 1259 0 
L 628 0 
L 628 4666 
z
" transform="scale(0.015625)"/>
      <path id="DejaVuSans-66" d="M 2375 4863 
L 2375 4384 
L 1825 4384 
Q 1516 4384 1395 4259 
Q 1275 4134 1275 3809 
L 1275 3500 
L 2222 3500 
L 2222 3053 
L 1275 3053 
L 1275 0 
L 697 0 
L 697 3053 
L 147 3053 
L 147 3500 
L 697 3500 
L 697 3744 
Q 697 4328 969 4595 
Q 1241 4863 1831 4863 
L 2375 4863 
z
" transform="scale(0.015625)"/>
      <path id="DejaVuSans-6d" d="M 3328 2828 
Q 3544 3216 3844 3400 
Q 4144 3584 4550 3584 
Q 5097 3584 5394 3201 
Q 5691 2819 5691 2113 
L 5691 0 
L 5113 0 
L 5113 2094 
Q 5113 2597 4934 2840 
Q 4756 3084 4391 3084 
Q 3944 3084 3684 2787 
Q 3425 2491 3425 1978 
L 3425 0 
L 2847 0 
L 2847 2094 
Q 2847 2600 2669 2842 
Q 2491 3084 2119 3084 
Q 1678 3084 1418 2786 
Q 1159 2488 1159 1978 
L 1159 0 
L 581 0 
L 581 3500 
L 1159 3500 
L 1159 2956 
Q 1356 3278 1631 3431 
Q 1906 3584 2284 3584 
Q 2666 3584 2933 3390 
Q 3200 3197 3328 2828 
z
" transform="scale(0.015625)"/>
     </defs>
     <use xlink:href="#DejaVuSans-54"/>
     <use xlink:href="#DejaVuSans-65" x="44.083984"/>
     <use xlink:href="#DejaVuSans-72" x="105.607422"/>
     <use xlink:href="#DejaVuSans-72" x="144.970703"/>
     <use xlink:href="#DejaVuSans-61" x="186.083984"/>
     <use xlink:href="#DejaVuSans-69" x="247.363281"/>
     <use xlink:href="#DejaVuSans-6e" x="275.146484"/>
     <use xlink:href="#DejaVuSans-20" x="338.525391"/>
     <use xlink:href="#DejaVuSans-52" x="370.3125"/>
     <use xlink:href="#DejaVuSans-65" x="435.294922"/>
     <use xlink:href="#DejaVuSans-73" x="496.818359"/>
     <use xlink:href="#DejaVuSans-70" x="548.917969"/>
     <use xlink:href="#DejaVuSans-6f" x="612.394531"/>
     <use xlink:href="#DejaVuSans-6e" x="673.576172"/>
     <use xlink:href="#DejaVuSans-73" x="736.955078"/>
     <use xlink:href="#DejaVuSans-65" x="789.054688"/>
     <use xlink:href="#DejaVuSans-20" x="850.578125"/>
     <use xlink:href="#DejaVuSans-32" x="882.365234"/>
     <use xlink:href="#DejaVuSans-3a" x="945.988281"/>
     <use xlink:href="#DejaVuSans-20" x="979.679688"/>
     <use xlink:href="#DejaVuSans-43" x="1011.466797"/>
     <use xlink:href="#DejaVuSans-6c" x="1081.291016"/>
     <use xlink:href="#DejaVuSans-6f" x="1109.074219"/>
     <use xlink:href="#DejaVuSans-73" x="1170.255859"/>
     <use xlink:href="#DejaVuSans-65" x="1222.355469"/>
     <use xlink:href="#DejaVuSans-64" x="1283.878906"/>
     <use xlink:href="#DejaVuSans-2d" x="1347.355469"/>
     <use xlink:href="#DejaVuSans-4c" x="1383.439453"/>
     <use xlink:href="#DejaVuSans-6f" x="1437.402344"/>
     <use xlink:href="#DejaVuSans-6f" x="1498.583984"/>
     <use xlink:href="#DejaVuSans-70" x="1559.765625"/>
     <use xlink:href="#DejaVuSans-20" x="1623.242188"/>
     <use xlink:href="#DejaVuSans-50" x="1655.029297"/>
     <use xlink:href="#DejaVuSans-65" x="1711.707031"/>
     <use xlink:href="#DejaVuSans-72" x="1773.230469"/>
     <use xlink:href="#DejaVuSans-66" x="1814.34375"/>
     <use xlink:href="#DejaVuSans-6f" x="1849.548828"/>
     <use xlink:href="#DejaVuSans-72" x="1910.730469"/>
     <use xlink:href="#DejaVuSans-6d" x="1950.09375"/>
     <use xlink:href="#DejaVuSans-61" x="2047.505859"/>
     <use xlink:href="#DejaVuSans-6e" x="2108.785156"/>
     <use xlink:href="#DejaVuSans-63" x="2172.164062"/>
     <use xlink:href="#DejaVuSans-65" x="2227.144531"/>
    </g>
   </g>
   <g id="legend_1">
    <g id="patch_7">
     <path d="M 111.6784 62.70409 
L 254.776837 62.70409 
Q 256.776837 62.70409 256.776837 60.70409 
L 256.776837 32.34784 
Q 256.776837 30.34784 254.776837 30.34784 
L 111.6784 30.34784 
Q 109.6784 30.34784 109.6784 32.34784 
L 109.6784 60.70409 
Q 109.6784 62.70409 111.6784 62.70409 
z
" style="fill: #ffffff; opacity: 0.8; stroke: #cccccc; stroke-linejoin: miter"/>
    </g>
    <g id="line2d_29">
     <path d="M 113.6784 38.446278 
L 123.6784 38.446278 
L 133.6784 38.446278 
" style="fill: none; stroke: #1f77b4; stroke-width: 2; stroke-linecap: square"/>
    </g>
    <g id="text_10">
     <!-- Vehicle Speed (m/s) -->
     <g transform="translate(141.6784 41.946278) scale(0.1 -0.1)">
      <defs>
       <path id="DejaVuSans-68" d="M 3513 2113 
L 3513 0 
L 2938 0 
L 2938 2094 
Q 2938 2591 2744 2837 
Q 2550 3084 2163 3084 
Q 1697 3084 1428 2787 
Q 1159 2491 1159 1978 
L 1159 0 
L 581 0 
L 581 4863 
L 1159 4863 
L 1159 2956 
Q 1366 3272 1645 3428 
Q 1925 3584 2291 3584 
Q 2894 3584 3203 3211 
Q 3513 2838 3513 2113 
z
" transform="scale(0.015625)"/>
       <path id="DejaVuSans-53" d="M 3425 4513 
L 3425 3897 
Q 3066 4069 2747 4153 
Q 2428 4238 2131 4238 
Q 1616 4238 1336 4038 
Q 1056 3838 1056 3469 
Q 1056 3159 1242 3001 
Q 1428 2844 1947 2747 
L 2328 2669 
Q 3034 2534 3370 2195 
Q 3706 1856 3706 1288 
Q 3706 609 3251 259 
Q 2797 -91 1919 -91 
Q 1588 -91 1214 -16 
Q 841 59 441 206 
L 441 856 
Q 825 641 1194 531 
Q 1563 422 1919 422 
Q 2459 422 2753 634 
Q 3047 847 3047 1241 
Q 3047 1584 2836 1778 
Q 2625 1972 2144 2069 
L 1759 2144 
Q 1053 2284 737 2584 
Q 422 2884 422 3419 
Q 422 4038 858 4394 
Q 1294 4750 2059 4750 
Q 2388 4750 2728 4690 
Q 3069 4631 3425 4513 
z
" transform="scale(0.015625)"/>
       <path id="DejaVuSans-28" d="M 1984 4856 
Q 1566 4138 1362 3434 
Q 1159 2731 1159 2009 
Q 1159 1288 1364 580 
Q 1569 -128 1984 -844 
L 1484 -844 
Q 1016 -109 783 600 
Q 550 1309 550 2009 
Q 550 2706 781 3412 
Q 1013 4119 1484 4856 
L 1984 4856 
z
" transform="scale(0.015625)"/>
       <path id="DejaVuSans-2f" d="M 1625 4666 
L 2156 4666 
L 531 -594 
L 0 -594 
L 1625 4666 
z
" transform="scale(0.015625)"/>
       <path id="DejaVuSans-29" d="M 513 4856 
L 1013 4856 
Q 1481 4119 1714 3412 
Q 1947 2706 1947 2009 
Q 1947 1309 1714 600 
Q 1481 -109 1013 -844 
L 513 -844 
Q 928 -128 1133 580 
Q 1338 1288 1338 2009 
Q 1338 2731 1133 3434 
Q 928 4138 513 4856 
z
" transform="scale(0.015625)"/>
      </defs>
      <use xlink:href="#DejaVuSans-56"/>
      <use xlink:href="#DejaVuSans-65" x="60.658203"/>
      <use xlink:href="#DejaVuSans-68" x="122.181641"/>
      <use xlink:href="#DejaVuSans-69" x="185.560547"/>
      <use xlink:href="#DejaVuSans-63" x="213.34375"/>
      <use xlink:href="#DejaVuSans-6c" x="268.324219"/>
      <use xlink:href="#DejaVuSans-65" x="296.107422"/>
      <use xlink:href="#DejaVuSans-20" x="357.630859"/>
      <use xlink:href="#DejaVuSans-53" x="389.417969"/>
      <use xlink:href="#DejaVuSans-70" x="452.894531"/>
      <use xlink:href="#DejaVuSans-65" x="516.371094"/>
      <use xlink:href="#DejaVuSans-65" x="577.894531"/>
      <use xlink:href="#DejaVuSans-64" x="639.417969"/>
      <use xlink:href="#DejaVuSans-20" x="702.894531"/>
      <use xlink:href="#DejaVuSans-28" x="734.681641"/>
      <use xlink:href="#DejaVuSans-6d" x="773.695312"/>
      <use xlink:href="#DejaVuSans-2f" x="871.107422"/>
      <use xlink:href="#DejaVuSans-73" x="904.798828"/>
      <use xlink:href="#DejaVuSans-29" x="956.898438"/>
     </g>
    </g>
    <g id="line2d_30">
     <path d="M 113.6784 53.124403 
L 123.6784 53.124403 
L 133.6784 53.124403 
" style="fill: none; stroke: #ff7f0e; stroke-opacity: 0.5; stroke-width: 1.5; stroke-linecap: square"/>
    </g>
    <g id="text_11">
     <!-- Wheel Speed (Sensor) -->
     <g transform="translate(141.6784 56.624403) scale(0.1 -0.1)">
      <defs>
       <path id="DejaVuSans-57" d="M 213 4666 
L 850 4666 
L 1831 722 
L 2809 4666 
L 3519 4666 
L 4500 722 
L 5478 4666 
L 6119 4666 
L 4947 0 
L 4153 0 
L 3169 4050 
L 2175 0 
L 1381 0 
L 213 4666 
z
" transform="scale(0.015625)"/>
      </defs>
      <use xlink:href="#DejaVuSans-57"/>
      <use xlink:href="#DejaVuSans-68" x="98.876953"/>
      <use xlink:href="#DejaVuSans-65" x="162.255859"/>
      <use xlink:href="#DejaVuSans-65" x="223.779297"/>
      <use xlink:href="#DejaVuSans-6c" x="285.302734"/>
      <use xlink:href="#DejaVuSans-20" x="313.085938"/>
      <use xlink:href="#DejaVuSans-53" x="344.873047"/>
      <use xlink:href="#DejaVuSans-70" x="408.349609"/>
      <use xlink:href="#DejaVuSans-65" x="471.826172"/>
      <use xlink:href="#DejaVuSans-65" x="533.349609"/>
      <use xlink:href="#DejaVuSans-64" x="594.873047"/>
      <use xlink:href="#DejaVuSans-20" x="658.349609"/>
      <use xlink:href="#DejaVuSans-28" x="690.136719"/>
      <use xlink:href="#DejaVuSans-53" x="729.150391"/>
      <use xlink:href="#DejaVuSans-65" x="792.626953"/>
      <use xlink:href="#DejaVuSans-6e" x="854.150391"/>
      <use xlink:href="#DejaVuSans-73" x="917.529297"/>
      <use xlink:href="#DejaVuSans-6f" x="969.628906"/>
      <use xlink:href="#DejaVuSans-72" x="1030.810547"/>
      <use xlink:href="#DejaVuSans-29" x="1071.923828"/>
     </g>
    </g>
   </g>
  </g>
  <g id="axes_2">
   <g id="patch_8">
    <path d="M 104.6784 503.59972 
L 1089.3312 503.59972 
L 1089.3312 271.21623 
L 104.6784 271.21623 
z
" style="fill: #ffffff"/>
   </g>
   <g id="matplotlib.axis_3">
    <g id="xtick_7">
     <g id="line2d_31">
      <path d="M 149.435345 503.59972 
L 149.435345 271.21623 
" clip-path="url(#pc28bbcc7c6)" style="fill: none; stroke: #b0b0b0; stroke-width: 0.8; stroke-linecap: square"/>
     </g>
     <g id="line2d_32">
      <g>
       <use xlink:href="#mee7358b973" x="149.435345" y="503.59972" style="stroke: #000000; stroke-width: 0.8"/>
      </g>
     </g>
     <g id="text_12">
      <!-- 0 -->
      <g transform="translate(146.254095 518.198157) scale(0.1 -0.1)">
       <use xlink:href="#DejaVuSans-30"/>
      </g>
     </g>
    </g>
    <g id="xtick_8">
     <g id="line2d_33">
      <path d="M 328.642334 503.59972 
L 328.642334 271.21623 
" clip-path="url(#pc28bbcc7c6)" style="fill: none; stroke: #b0b0b0; stroke-width: 0.8; stroke-linecap: square"/>
     </g>
     <g id="line2d_34">
      <g>
       <use xlink:href="#mee7358b973" x="328.642334" y="503.59972" style="stroke: #000000; stroke-width: 0.8"/>
      </g>
     </g>
     <g id="text_13">
      <!-- 2 -->
      <g transform="translate(325.461084 518.198157) scale(0.1 -0.1)">
       <use xlink:href="#DejaVuSans-32"/>
      </g>
     </g>
    </g>
    <g id="xtick_9">
     <g id="line2d_35">
      <path d="M 507.849323 503.59972 
L 507.849323 271.21623 
" clip-path="url(#pc28bbcc7c6)" style="fill: none; stroke: #b0b0b0; stroke-width: 0.8; stroke-linecap: square"/>
     </g>
     <g id="line2d_36">
      <g>
       <use xlink:href="#mee7358b973" x="507.849323" y="503.59972" style="stroke: #000000; stroke-width: 0.8"/>
      </g>
     </g>
     <g id="text_14">
      <!-- 4 -->
      <g transform="translate(504.668073 518.198157) scale(0.1 -0.1)">
       <use xlink:href="#DejaVuSans-34"/>
      </g>
     </g>
    </g>
    <g id="xtick_10">
     <g id="line2d_37">
      <path d="M 687.056312 503.59972 
L 687.056312 271.21623 
" clip-path="url(#pc28bbcc7c6)" style="fill: none; stroke: #b0b0b0; stroke-width: 0.8; stroke-linecap: square"/>
     </g>
     <g id="line2d_38">
      <g>
       <use xlink:href="#mee7358b973" x="687.056312" y="503.59972" style="stroke: #000000; stroke-width: 0.8"/>
      </g>
     </g>
     <g id="text_15">
      <!-- 6 -->
      <g transform="translate(683.875062 518.198157) scale(0.1 -0.1)">
       <use xlink:href="#DejaVuSans-36"/>
      </g>
     </g>
    </g>
    <g id="xtick_11">
     <g id="line2d_39">
      <path d="M 866.263301 503.59972 
L 866.263301 271.21623 
" clip-path="url(#pc28bbcc7c6)" style="fill: none; stroke: #b0b0b0; stroke-width: 0.8; stroke-linecap: square"/>
     </g>
     <g id="line2d_40">
      <g>
       <use xlink:href="#mee7358b973" x="866.263301" y="503.59972" style="stroke: #000000; stroke-width: 0.8"/>
      </g>
     </g>
     <g id="text_16">
      <!-- 8 -->
      <g transform="translate(863.082051 518.198157) scale(0.1 -0.1)">
       <use xlink:href="#DejaVuSans-38"/>
      </g>
     </g>
    </g>
    <g id="xtick_12">
     <g id="line2d_41">
      <path d="M 1045.470289 503.59972 
L 1045.470289 271.21623 
" clip-path="url(#pc28bbcc7c6)" style="fill: none; stroke: #b0b0b0; stroke-width: 0.8; stroke-linecap: square"/>
     </g>
     <g id="line2d_42">
      <g>
       <use xlink:href="#mee7358b973" x="1045.470289" y="503.59972" style="stroke: #000000; stroke-width: 0.8"/>
      </g>
     </g>
     <g id="text_17">
      <!-- 10 -->
      <g transform="translate(1039.107789 518.198157) scale(0.1 -0.1)">
       <defs>
        <path id="DejaVuSans-31" d="M 794 531 
L 1825 531 
L 1825 4091 
L 703 3866 
L 703 4441 
L 1819 4666 
L 2450 4666 
L 2450 531 
L 3481 531 
L 3481 0 
L 794 0 
L 794 531 
z
" transform="scale(0.015625)"/>
       </defs>
       <use xlink:href="#DejaVuSans-31"/>
       <use xlink:href="#DejaVuSans-30" x="63.623047"/>
      </g>
     </g>
    </g>
    <g id="text_18">
     <!-- Time (s) -->
     <g transform="translate(576.675894 531.876283) scale(0.1 -0.1)">
      <use xlink:href="#DejaVuSans-54"/>
      <use xlink:href="#DejaVuSans-69" x="57.958984"/>
      <use xlink:href="#DejaVuSans-6d" x="85.742188"/>
      <use xlink:href="#DejaVuSans-65" x="183.154297"/>
      <use xlink:href="#DejaVuSans-20" x="244.677734"/>
      <use xlink:href="#DejaVuSans-28" x="276.464844"/>
      <use xlink:href="#DejaVuSans-73" x="315.478516"/>
      <use xlink:href="#DejaVuSans-29" x="367.578125"/>
     </g>
    </g>
   </g>
   <g id="matplotlib.axis_4">
    <g id="ytick_8">
     <g id="line2d_43">
      <path d="M 104.6784 493.036834 
L 1089.3312 493.036834 
" clip-path="url(#pc28bbcc7c6)" style="fill: none; stroke: #b0b0b0; stroke-width: 0.8; stroke-linecap: square"/>
     </g>
     <g id="line2d_44">
      <g>
       <use xlink:href="#mc2a06ee8e5" x="104.6784" y="493.036834" style="stroke: #000000; stroke-width: 0.8"/>
      </g>
     </g>
     <g id="text_19">
      <!-- Normal -->
      <g transform="translate(61.495588 496.836053) scale(0.1 -0.1)">
       <defs>
        <path id="DejaVuSans-4e" d="M 628 4666 
L 1478 4666 
L 3547 763 
L 3547 4666 
L 4159 4666 
L 4159 0 
L 3309 0 
L 1241 3903 
L 1241 0 
L 628 0 
L 628 4666 
z
" transform="scale(0.015625)"/>
       </defs>
       <use xlink:href="#DejaVuSans-4e"/>
       <use xlink:href="#DejaVuSans-6f" x="74.804688"/>
       <use xlink:href="#DejaVuSans-72" x="135.986328"/>
       <use xlink:href="#DejaVuSans-6d" x="175.349609"/>
       <use xlink:href="#DejaVuSans-61" x="272.761719"/>
       <use xlink:href="#DejaVuSans-6c" x="334.041016"/>
      </g>
     </g>
    </g>
    <g id="ytick_9">
     <g id="line2d_45">
      <path d="M 104.6784 387.407975 
L 1089.3312 387.407975 
" clip-path="url(#pc28bbcc7c6)" style="fill: none; stroke: #b0b0b0; stroke-width: 0.8; stroke-linecap: square"/>
     </g>
     <g id="line2d_46">
      <g>
       <use xlink:href="#mc2a06ee8e5" x="104.6784" y="387.407975" style="stroke: #000000; stroke-width: 0.8"/>
      </g>
     </g>
     <g id="text_20">
      <!-- Sand -->
      <g transform="translate(72.5159 391.207194) scale(0.1 -0.1)">
       <use xlink:href="#DejaVuSans-53"/>
       <use xlink:href="#DejaVuSans-61" x="63.476562"/>
       <use xlink:href="#DejaVuSans-6e" x="124.755859"/>
       <use xlink:href="#DejaVuSans-64" x="188.134766"/>
      </g>
     </g>
    </g>
    <g id="ytick_10">
     <g id="line2d_47">
      <path d="M 104.6784 281.779116 
L 1089.3312 281.779116 
" clip-path="url(#pc28bbcc7c6)" style="fill: none; stroke: #b0b0b0; stroke-width: 0.8; stroke-linecap: square"/>
     </g>
     <g id="line2d_48">
      <g>
       <use xlink:href="#mc2a06ee8e5" x="104.6784" y="281.779116" style="stroke: #000000; stroke-width: 0.8"/>
      </g>
     </g>
     <g id="text_21">
      <!-- Rock -->
      <g transform="translate(73.77215 285.578335) scale(0.1 -0.1)">
       <defs>
        <path id="DejaVuSans-6b" d="M 581 4863 
L 1159 4863 
L 1159 1991 
L 2875 3500 
L 3609 3500 
L 1753 1863 
L 3688 0 
L 2938 0 
L 1159 1709 
L 1159 0 
L 581 0 
L 581 4863 
z
" transform="scale(0.015625)"/>
       </defs>
       <use xlink:href="#DejaVuSans-52"/>
       <use xlink:href="#DejaVuSans-6f" x="64.982422"/>
       <use xlink:href="#DejaVuSans-63" x="126.164062"/>
       <use xlink:href="#DejaVuSans-6b" x="181.144531"/>
      </g>
     </g>
    </g>
    <g id="text_22">
     <!-- System State -->
     <g transform="translate(55.4159 420.877506) rotate(-90) scale(0.1 -0.1)">
      <use xlink:href="#DejaVuSans-53"/>
      <use xlink:href="#DejaVuSans-79" x="63.476562"/>
      <use xlink:href="#DejaVuSans-73" x="122.65625"/>
      <use xlink:href="#DejaVuSans-74" x="174.755859"/>
      <use xlink:href="#DejaVuSans-65" x="213.964844"/>
      <use xlink:href="#DejaVuSans-6d" x="275.488281"/>
      <use xlink:href="#DejaVuSans-20" x="372.900391"/>
      <use xlink:href="#DejaVuSans-53" x="404.6875"/>
      <use xlink:href="#DejaVuSans-74" x="468.164062"/>
      <use xlink:href="#DejaVuSans-61" x="507.373047"/>
      <use xlink:href="#DejaVuSans-74" x="568.652344"/>
      <use xlink:href="#DejaVuSans-65" x="607.861328"/>
     </g>
    </g>
   </g>
   <g id="line2d_49">
    <path d="M 149.435345 493.036834 
L 160.187765 493.036834 
L 160.187765 281.779116 
L 429.894283 281.779116 
L 429.894283 387.407975 
L 689.744417 387.407975 
L 689.744417 281.779116 
L 1044.574255 281.779116 
L 1044.574255 281.779116 
" clip-path="url(#pc28bbcc7c6)" style="fill: none; stroke: #ff0000; stroke-width: 1.5; stroke-linecap: square"/>
   </g>
   <g id="patch_9">
    <path d="M 104.6784 503.59972 
L 104.6784 271.21623 
" style="fill: none; stroke: #000000; stroke-width: 0.8; stroke-linejoin: miter; stroke-linecap: square"/>
   </g>
   <g id="patch_10">
    <path d="M 1089.3312 503.59972 
L 1089.3312 271.21623 
" style="fill: none; stroke: #000000; stroke-width: 0.8; stroke-linejoin: miter; stroke-linecap: square"/>
   </g>
   <g id="patch_11">
    <path d="M 104.6784 503.59972 
L 1089.3312 503.59972 
" style="fill: none; stroke: #000000; stroke-width: 0.8; stroke-linejoin: miter; stroke-linecap: square"/>
   </g>
   <g id="patch_12">
    <path d="M 104.6784 271.21623 
L 1089.3312 271.21623 
" style="fill: none; stroke: #000000; stroke-width: 0.8; stroke-linejoin: miter; stroke-linecap: square"/>
   </g>
  </g>
 </g>
 <defs>
  <clipPath id="pdab57082d2">
   <rect x="104.6784" y="25.34784" width="984.6528" height="232.38349"/>
  </clipPath>
  <clipPath id="pc28bbcc7c6">
   <rect x="104.6784" y="271.21623" width="984.6528" height="232.38349"/>
  </clipPath>
 </defs>
</svg>
